HIERARCHY
ROOT hips
{
	OFFSET 0.000000 104.274902 0.000000
	CHANNELS 6 Xposition Yposition Zposition Xrotation Yrotation Zrotation
	JOINT spine
	{
		OFFSET 0.000000 10.181549 0.131524
		CHANNELS 6 Xposition Yposition Zposition Xrotation Yrotation Zrotation
		JOINT chest
		{
			OFFSET 0.000000 9.893990 -1.470706
			CHANNELS 3 Xrotation Yrotation Zrotation
			JOINT upperChest
			{
				OFFSET 0.000000 9.220787 -1.370637
				CHANNELS 3 Xrotation Yrotation Zrotation
				JOINT neck
				{
					OFFSET 0.000000 16.740372 -2.049022
					CHANNELS 6 Xposition Yposition Zposition Xrotation Yrotation Zrotation
					JOINT head
					{
						OFFSET 0.000000 9.617859 1.684976
						CHANNELS 6 Xposition Yposition Zposition Xrotation Yrotation Zrotation
						JOINT headEnd
						{
							OFFSET 0.000000 22.037384 7.501072
							CHANNELS 6 Xposition Yposition Zposition Xrotation Yrotation Zrotation
							End Site
							{
								OFFSET 0.000000 23.106567 -2.828246
							}
						}
					}
				}
				JOINT rightShoulder
				{
					OFFSET -4.570000 11.014877 -2.160840
					CHANNELS 6 Xposition Yposition Zposition Xrotation Yrotation Zrotation
					JOINT rightUpperArm
					{
						OFFSET -10.592867 -0.524796 -2.232105
						CHANNELS 3 Xrotation Yrotation Zrotation
						JOINT rightLowerArm
						{
							OFFSET -27.841497 0.000000 -0.000002
							CHANNELS 3 Xrotation Yrotation Zrotation
							JOINT rightHand
							{
								OFFSET -28.328812 0.000000 -0.000001
								CHANNELS 3 Xrotation Yrotation Zrotation
								JOINT rightThumbProximal
								{
									OFFSET -2.464798 -1.573990 2.681911
									CHANNELS 6 Xposition Yposition Zposition Xrotation Yrotation Zrotation
									JOINT rightThumbIntermediate
									{
										OFFSET -3.244781 -1.873383 1.873376
										CHANNELS 3 Xrotation Yrotation Zrotation
										JOINT rightThumbDistal
										{
											OFFSET -2.646263 -1.527817 1.527818
											CHANNELS 6 Xposition Yposition Zposition Xrotation Yrotation Zrotation
											JOINT rightHandThumb4
											{
												OFFSET -1.994591 -1.151581 1.151575
												CHANNELS 6 Xposition Yposition Zposition Xrotation Yrotation Zrotation
												End Site
												{
													OFFSET -1.860176 -1.142715 1.365483
												}
											}
										}
									}
								}
								JOINT rightIndexProximal
								{
									OFFSET -9.108299 -0.517883 2.259803
									CHANNELS 6 Xposition Yposition Zposition Xrotation Yrotation Zrotation
									JOINT rightIndexIntermediate
									{
										OFFSET -3.699997 0.000000 0.000000
										CHANNELS 3 Xrotation Yrotation Zrotation
										JOINT rightIndexDistal
										{
											OFFSET -2.850006 0.000000 0.000000
											CHANNELS 3 Xrotation Yrotation Zrotation
											JOINT rightHandIndex4
											{
												OFFSET -2.772194 0.000000 0.000000
												CHANNELS 3 Xrotation Yrotation Zrotation
												End Site
												{
													OFFSET -2.772202 0.000000 -0.000484
												}
											}
										}
									}
								}
								JOINT rightMiddleProximal
								{
									OFFSET -9.532501 0.000000 -0.000000
									CHANNELS 6 Xposition Yposition Zposition Xrotation Yrotation Zrotation
									JOINT rightMiddleIntermediate
									{
										OFFSET -3.699997 0.000000 0.000000
										CHANNELS 3 Xrotation Yrotation Zrotation
										JOINT rightMiddleDistal
										{
											OFFSET -2.949997 0.000000 0.000000
											CHANNELS 3 Xrotation Yrotation Zrotation
											JOINT rightHandMiddle4
											{
												OFFSET -2.946594 0.000000 0.000000
												CHANNELS 3 Xrotation Yrotation Zrotation
												End Site
												{
													OFFSET -2.946602 0.000000 -0.000982
												}
											}
										}
									}
								}
								JOINT rightRingProximal
								{
									OFFSET -9.103600 -0.043106 -1.865100
									CHANNELS 6 Xposition Yposition Zposition Xrotation Yrotation Zrotation
									JOINT rightRingIntermediate
									{
										OFFSET -3.379303 0.000000 0.000000
										CHANNELS 3 Xrotation Yrotation Zrotation
										JOINT rightRingDistal
										{
											OFFSET -2.889694 0.000000 0.000000
											CHANNELS 3 Xrotation Yrotation Zrotation
											JOINT rightHandRing4
											{
												OFFSET -2.638802 0.000000 0.000000
												CHANNELS 3 Xrotation Yrotation Zrotation
												End Site
												{
													OFFSET -2.638802 0.000000 0.004218
												}
											}
										}
									}
								}
								JOINT rightLittleProximal
								{
									OFFSET -8.076698 -0.486725 -3.806299
									CHANNELS 6 Xposition Yposition Zposition Xrotation Yrotation Zrotation
									JOINT rightLittleIntermediate
									{
										OFFSET -3.600006 0.000000 0.000000
										CHANNELS 3 Xrotation Yrotation Zrotation
										JOINT rightLittleDistal
										{
											OFFSET -2.099998 0.000000 0.000000
											CHANNELS 3 Xrotation Yrotation Zrotation
											JOINT rightHandPinky4
											{
												OFFSET -2.115791 0.000000 0.000000
												CHANNELS 3 Xrotation Yrotation Zrotation
												End Site
												{
													OFFSET -2.115799 0.000000 0.000174
												}
											}
										}
									}
								}
							}
						}
					}
				}
				JOINT leftShoulder
				{
					OFFSET 4.570400 11.014679 -2.160816
					CHANNELS 6 Xposition Yposition Zposition Xrotation Yrotation Zrotation
					JOINT leftUpperArm
					{
						OFFSET 10.592373 -0.524597 -2.232116
						CHANNELS 3 Xrotation Yrotation Zrotation
						JOINT leftLowerArm
						{
							OFFSET 27.841488 0.000000 0.000001
							CHANNELS 3 Xrotation Yrotation Zrotation
							JOINT leftHand
							{
								OFFSET 28.328808 0.000000 -0.000000
								CHANNELS 3 Xrotation Yrotation Zrotation
								JOINT leftThumbProximal
								{
									OFFSET 2.466103 -1.576202 2.681698
									CHANNELS 6 Xposition Yposition Zposition Xrotation Yrotation Zrotation
									JOINT leftThumbIntermediate
									{
										OFFSET 3.243317 -1.872528 1.872530
										CHANNELS 3 Xrotation Yrotation Zrotation
										JOINT leftThumbDistal
										{
											OFFSET 2.647881 -1.528763 1.528754
											CHANNELS 6 Xposition Yposition Zposition Xrotation Yrotation Zrotation
											JOINT leftHandThumb4
											{
												OFFSET 1.998924 -1.154083 1.154080
												CHANNELS 6 Xposition Yposition Zposition Xrotation Yrotation Zrotation
												End Site
												{
													OFFSET 1.884041 -1.149155 1.337651
												}
											}
										}
									}
								}
								JOINT leftIndexProximal
								{
									OFFSET 9.109299 -0.518005 2.259900
									CHANNELS 6 Xposition Yposition Zposition Xrotation Yrotation Zrotation
									JOINT leftIndexIntermediate
									{
										OFFSET 3.699997 0.000000 0.000000
										CHANNELS 3 Xrotation Yrotation Zrotation
										JOINT leftIndexDistal
										{
											OFFSET 2.850006 0.000000 0.000000
											CHANNELS 3 Xrotation Yrotation Zrotation
											JOINT leftHandIndex4
											{
												OFFSET 2.774895 0.000000 0.000000
												CHANNELS 3 Xrotation Yrotation Zrotation
												End Site
												{
													OFFSET 2.774902 0.000000 -0.000072
												}
											}
										}
									}
								}
								JOINT leftMiddleProximal
								{
									OFFSET 9.533401 0.000000 0.000000
									CHANNELS 6 Xposition Yposition Zposition Xrotation Yrotation Zrotation
									JOINT leftMiddleIntermediate
									{
										OFFSET 3.699997 0.000000 0.000000
										CHANNELS 3 Xrotation Yrotation Zrotation
										JOINT leftMiddleDistal
										{
											OFFSET 2.949997 0.000000 0.000000
											CHANNELS 3 Xrotation Yrotation Zrotation
											JOINT leftHandMiddle4
											{
												OFFSET 2.952896 0.000000 0.000000
												CHANNELS 3 Xrotation Yrotation Zrotation
												End Site
												{
													OFFSET 2.952904 0.000000 0.000165
												}
											}
										}
									}
								}
								JOINT leftRingProximal
								{
									OFFSET 9.104500 -0.042999 -1.865101
									CHANNELS 6 Xposition Yposition Zposition Xrotation Yrotation Zrotation
									JOINT leftRingIntermediate
									{
										OFFSET 3.149994 0.000000 0.000000
										CHANNELS 3 Xrotation Yrotation Zrotation
										JOINT leftRingDistal
										{
											OFFSET 2.950005 0.000000 0.000000
											CHANNELS 3 Xrotation Yrotation Zrotation
											JOINT leftHandRing4
											{
												OFFSET 2.644302 0.000000 0.000000
												CHANNELS 3 Xrotation Yrotation Zrotation
												End Site
												{
													OFFSET 2.644302 0.000000 0.000083
												}
											}
										}
									}
								}
								JOINT leftLittleProximal
								{
									OFFSET 8.077805 -0.486893 -3.806302
									CHANNELS 6 Xposition Yposition Zposition Xrotation Yrotation Zrotation
									JOINT leftLittleIntermediate
									{
										OFFSET 3.600006 0.000000 0.000000
										CHANNELS 3 Xrotation Yrotation Zrotation
										JOINT leftLittleDistal
										{
											OFFSET 2.099998 0.000000 0.000000
											CHANNELS 3 Xrotation Yrotation Zrotation
											JOINT leftHandPinky4
											{
												OFFSET 2.125496 0.000000 0.000000
												CHANNELS 3 Xrotation Yrotation Zrotation
												End Site
												{
													OFFSET 2.125504 0.000000 -0.001254
												}
											}
										}
									}
								}
							}
						}
					}
				}
			}
		}
	}
	JOINT rightUpperLeg
	{
		OFFSET -8.207800 -6.751701 -1.599544
		CHANNELS 6 Xposition Yposition Zposition Xrotation Yrotation Zrotation
		JOINT rightLowerLeg
		{
			OFFSET 0.000004 -44.370152 0.345934
			CHANNELS 3 Xrotation Yrotation Zrotation
			JOINT rightFoot
			{
				OFFSET 0.000004 -44.423664 -3.043535
				CHANNELS 3 Xrotation Yrotation Zrotation
				JOINT rightToes
				{
					OFFSET 0.000001 -8.728691 10.710592
					CHANNELS 3 Xrotation Yrotation Zrotation
					JOINT rightToesEnd
					{
						OFFSET 0.000000 -0.000665 9.278101
						CHANNELS 3 Xrotation Yrotation Zrotation
						End Site
						{
							OFFSET 0.000000 -0.000665 9.278103
						}
					}
				}
			}
		}
	}
	JOINT leftUpperLeg
	{
		OFFSET 8.207800 -6.751701 -1.599544
		CHANNELS 6 Xposition Yposition Zposition Xrotation Yrotation Zrotation
		JOINT leftLowerLeg
		{
			OFFSET 0.000004 -44.370037 0.346940
			CHANNELS 3 Xrotation Yrotation Zrotation
			JOINT leftFoot
			{
				OFFSET 0.000004 -44.423611 -3.044388
				CHANNELS 3 Xrotation Yrotation Zrotation
				JOINT leftToes
				{
					OFFSET 0.000001 -8.728690 10.710592
					CHANNELS 3 Xrotation Yrotation Zrotation
					JOINT leftToesEnd
					{
						OFFSET 0.000000 -0.000680 9.278101
						CHANNELS 3 Xrotation Yrotation Zrotation
						End Site
						{
							OFFSET 0.000000 -0.000680 9.278101
						}
					}
				}
			}
		}
	}
}
MOTION
Frames: 4
Frame Time: 0.033333
-0.311144 104.428055 8.768738 -1.917876 -0.076132 9.204152 0.000002 10.181553 0.131524 -0.384376 2.921226 -0.964697 -0.006883 6.101430 -7.348157 -0.101099 6.044822 -7.389641 -0.000004 16.740379 -2.049018 -1.920276 -0.260324 1.031328 0.000004 9.617844 1.684973 2.789550 -1.639011 11.367118 0.000001 22.037369 7.501069 0.000000 -0.000000 0.000001 -4.570005 11.014884 -2.160838 0.159345 -8.395823 6.596356 6.121828 30.096768 58.679569 0.000407 99.717415 -0.000345 1.007359 22.937572 -39.889292 -2.464787 -1.573983 2.681916 -1.849242 -3.581793 -6.586146 4.637199 -8.634133 -0.225373 -2.646274 -1.527830 1.527827 -1.273747 0.137301 -2.094874 -1.994579 -1.151580 1.151564 -0.000000 0.000000 0.000001 -9.108286 -0.517883 2.259814 0.000000 -0.000001 0.000001 -0.000002 -0.000001 0.000034 0.000044 0.023039 -0.189087 0.000000 0.000002 0.000001 -9.532488 0.000000 0.000010 0.000000 -0.000001 0.000001 0.000000 0.000003 0.000000 0.000000 0.000003 0.000000 0.000000 0.000004 -0.000001 -9.103594 -0.043106 -1.865090 0.000000 -0.000001 0.000001 0.000000 0.000004 0.000000 -0.000000 0.000001 0.000000 0.000000 -0.000000 -0.000001 -8.076684 -0.486726 -3.806286 0.000004 -0.000002 -0.000009 -0.000000 0.000003 -0.000001 -0.000000 0.000003 -0.000001 -0.000001 0.000001 -0.000000 4.570395 11.014705 -2.160813 0.241690 5.632265 -6.701711 -1.772529 -34.161154 17.239041 0.000006 -18.455210 0.000003 2.268270 -24.779677 14.233557 2.466108 -1.576201 2.681703 -1.539948 3.690279 6.142343 3.939035 7.948704 0.746804 2.647886 -1.528757 1.528751 -0.579467 1.574994 2.538710 1.998928 -1.154078 1.154070 0.000001 0.000001 0.000001 9.109297 -0.518024 2.259903 -0.000000 -0.000003 -0.000002 0.000001 0.000003 -0.000023 0.000038 -0.022829 0.189112 -0.000001 -0.000000 -0.000003 9.533419 0.000025 0.000002 -0.000001 -0.001936 0.015986 0.000002 0.001937 -0.015988 -0.000002 0.000003 -0.000001 -0.000002 0.000004 -0.000002 9.104498 -0.043002 -1.865100 -0.000000 -0.000003 -0.000002 -0.000001 -0.000003 0.000000 -0.000001 -0.000003 0.000000 -0.000003 -0.000006 0.000001 8.077805 -0.486899 -3.806298 -0.018085 4.054265 0.511062 -0.018093 -4.054263 -0.511065 0.000000 0.000001 -0.000002 -0.000001 -0.000000 0.000001 -8.207796 -6.751714 -1.599538 -39.438383 8.104469 -1.327073 80.639146 -9.199758 -0.560998 32.194022 -6.104942 -7.295352 -0.305790 -0.000001 0.000002 0.000002 0.000000 -0.000000 8.207804 -6.751702 -1.599543 -9.944431 2.846698 -15.162048 26.889034 2.457200 0.106420 26.142109 1.408146 12.655451 -38.240744 0.251141 -4.997029 0.000000 0.000000 0.000000 
-0.683952 104.514259 8.394053 -2.750749 2.869238 9.322097 -0.000000 10.181540 0.131524 -0.065825 2.566930 -1.147254 0.412875 5.109903 -7.604879 0.334704 5.078105 -7.629163 -0.000003 16.740356 -2.049018 -1.923689 -0.340519 1.225461 0.000002 9.617860 1.684974 2.682220 -1.870632 12.046787 0.000000 22.037384 7.501077 -0.000000 0.000001 0.000001 -4.570002 11.014879 -2.160836 0.166662 -7.576892 6.250576 11.888822 29.832016 58.494983 0.000641 95.453847 -0.000566 4.478273 22.261936 -43.253870 -2.464800 -1.574002 2.681928 -1.849241 -3.581791 -6.586152 4.637199 -8.634143 -0.225378 -2.646262 -1.527813 1.527822 -1.273750 0.137307 -2.094869 -1.994606 -1.151572 1.151570 0.000003 -0.000008 -0.000000 -9.108296 -0.517883 2.259829 -0.000000 0.000002 -0.000001 -0.000004 -0.000004 0.000034 0.000044 0.023038 -0.189086 -0.000000 0.000002 0.000000 -9.532498 0.000000 0.000019 -0.000000 0.000002 -0.000001 -0.000000 0.000002 -0.000000 -0.000001 -0.000001 0.000000 -0.000000 -0.000002 0.000000 -9.103597 -0.043106 -1.865080 -0.000000 0.000001 -0.000001 -0.000002 -0.000001 0.000000 -0.000002 0.000002 -0.000000 -0.000000 -0.000001 -0.000000 -8.076696 -0.486727 -3.806274 0.000004 0.000001 -0.000010 -0.000000 0.000003 -0.000001 -0.000000 0.000003 -0.000001 0.000000 0.000001 -0.000001 4.570402 11.014674 -2.160811 0.255394 5.982968 -7.454043 -3.832216 -39.187217 15.659727 0.000003 -16.689591 -0.000001 1.266293 -24.539756 16.164792 2.466081 -1.576225 2.681693 -1.539948 3.690277 6.142346 3.939037 7.948711 0.746809 2.647876 -1.528754 1.528754 -0.579467 1.574996 2.538707 1.998928 -1.154082 1.154090 0.000001 0.000001 0.000001 9.109285 -0.517991 2.259899 0.000001 0.000000 0.000002 0.000003 0.000004 -0.000018 0.000038 -0.022827 0.189115 -0.000001 0.000002 0.000001 9.533390 0.000011 -0.000006 0.000000 -0.001934 0.015988 -0.000000 0.001932 -0.015987 0.000001 0.000001 0.000001 0.000001 0.000004 -0.000000 9.104486 -0.043001 -1.865102 0.000001 0.000000 0.000002 0.000001 -0.000001 0.000001 0.000001 -0.000001 0.000001 0.000002 0.000002 0.000001 8.077787 -0.486907 -3.806306 -0.018085 4.054268 0.511063 -0.018092 -4.054266 -0.511064 -0.000000 0.000000 0.000000 0.000002 -0.000001 -0.000001 -8.207802 -6.751717 -1.599540 -39.598623 7.779925 -2.373256 77.255334 -9.207326 -0.548705 31.693290 -5.753136 -8.468422 -0.342150 0.000002 0.000004 -0.000001 -0.000000 -0.000002 8.207796 -6.751713 -1.599544 -9.274847 2.847304 -15.020148 26.836684 1.138317 0.029722 27.175648 1.600675 12.851592 -38.984964 0.273576 -4.889531 0.000000 -0.000000 0.000000 
-1.078617 104.499092 8.121592 -3.779592 7.076766 9.599712 0.000001 10.181558 0.131524 0.275491 1.999755 -1.519371 0.840788 3.669345 -7.791172 0.787870 3.664217 -7.803203 0.000000 16.740374 -2.049019 -1.933982 -0.452512 1.426022 0.000000 9.617848 1.684979 2.545892 -2.255602 12.732269 0.000000 22.037369 7.501078 -0.000001 0.000000 0.000001 -4.569998 11.014857 -2.160840 0.170799 -6.644076 5.766740 17.965472 28.294393 57.940071 -0.004579 89.365615 0.004940 9.645462 20.508606 -45.744806 -2.464795 -1.573987 2.681904 -1.849241 -3.581788 -6.586149 4.637198 -8.634133 -0.225381 -2.646270 -1.527784 1.527812 -1.273754 0.137306 -2.094870 -1.994581 -1.151568 1.151575 -0.000001 -0.000000 -0.000004 -9.108290 -0.517882 2.259790 -0.000003 -0.000002 -0.000001 -0.000002 -0.000004 0.000034 0.000043 0.023042 -0.189086 0.000002 0.000003 0.000000 -9.532492 0.000002 -0.000009 -0.000003 -0.000001 -0.000001 -0.000001 0.000001 -0.000001 -0.000001 0.000001 0.000000 -0.000001 0.000000 0.000000 -9.103599 -0.043105 -1.865110 -0.000001 -0.000000 -0.000001 -0.000001 0.000002 -0.000001 0.000000 0.000001 -0.000000 -0.000001 0.000000 -0.000001 -8.076690 -0.486726 -3.806311 0.000001 -0.000002 -0.000009 -0.000000 -0.000000 0.000001 -0.000000 -0.000000 0.000001 -0.000002 -0.000000 0.000001 4.570401 11.014675 -2.160814 0.271690 6.380396 -8.287961 -6.492629 -45.246547 12.059003 -0.000004 -16.016368 0.000007 0.621158 -24.284551 18.506456 2.466080 -1.576214 2.681693 -1.539947 3.690278 6.142349 3.939037 7.948710 0.746805 2.647901 -1.528732 1.528755 -0.579469 1.574996 2.538703 1.998921 -1.154078 1.154077 0.000001 0.000001 0.000001 9.109291 -0.518006 2.259896 0.000001 -0.000000 0.000006 0.000002 0.000002 -0.000015 0.000041 -0.022828 0.189114 0.000001 0.000001 0.000001 9.533382 -0.000003 -0.000006 0.000000 -0.001936 0.015994 0.000006 0.001936 -0.015985 0.000002 0.000000 -0.000001 0.000003 -0.000002 0.000002 9.104500 -0.043002 -1.865111 0.000001 -0.000000 0.000006 0.000001 0.000002 0.000001 0.000001 0.000002 0.000001 0.000000 0.000001 0.000002 8.077797 -0.486898 -3.806306 -0.018085 4.054265 0.511066 -0.018092 -4.054263 -0.511062 0.000003 -0.000000 0.000000 0.000002 -0.000003 -0.000001 -8.207801 -6.751719 -1.599539 -38.925668 7.015078 -4.430367 71.530024 -8.861613 -0.513422 30.612300 -4.816127 -9.726049 -0.559814 -0.000003 -0.000012 0.000002 -0.000000 -0.000000 8.207801 -6.751708 -1.599543 -8.622528 2.945160 -14.843507 27.345945 -0.190149 -0.050131 27.766520 1.859100 13.408083 -39.495774 0.272084 -5.081361 0.000000 -0.000000 0.000000 
-1.473038 104.342133 8.013810 -4.961711 12.624175 10.030995 0.000002 10.181554 0.131522 0.556270 1.188155 -2.079985 1.167235 1.771680 -7.879776 1.143370 1.786267 -7.886751 -0.000003 16.740377 -2.049022 -1.928123 -0.610801 1.708612 0.000001 9.617849 1.684972 2.387527 -2.741230 13.300103 -0.000002 22.037354 7.501075 -0.000000 0.000002 0.000001 -4.569999 11.014862 -2.160842 0.175075 -5.817290 5.243693 24.582930 26.107051 56.450137 -0.000309 80.596376 0.000358 16.335138 18.032114 -46.971832 -2.464795 -1.573985 2.681902 -1.849241 -3.581789 -6.586149 4.637196 -8.634137 -0.225372 -2.646273 -1.527800 1.527806 -1.273751 0.137309 -2.094868 -1.994593 -1.151600 1.151587 0.000002 0.000003 -0.000002 -9.108297 -0.517884 2.259800 0.000005 -0.000000 0.000002 -0.000004 0.000000 0.000032 0.000044 0.023041 -0.189087 0.000007 0.000000 0.000001 -9.532507 -0.000001 -0.000007 0.000005 0.000000 0.000002 -0.000001 0.000001 -0.000000 -0.000000 0.000003 -0.000000 0.000001 0.000001 -0.000000 -9.103605 -0.043107 -1.865100 0.000005 -0.000001 0.000002 -0.000001 0.000003 -0.000000 0.000004 0.000003 -0.000001 0.000002 0.000002 -0.000001 -8.076703 -0.486727 -3.806305 0.000008 0.000000 -0.000007 -0.000000 -0.000000 0.000000 -0.000000 -0.000000 0.000000 -0.000000 0.000002 0.000001 4.570403 11.014686 -2.160817 0.292884 6.737337 -9.054009 -10.779673 -51.881909 5.556294 0.000010 -16.809772 0.000001 0.386348 -24.014054 21.413029 2.466089 -1.576203 2.681692 -1.539946 3.690285 6.142349 3.939036 7.948710 0.746808 2.647884 -1.528759 1.528754 -0.579466 1.574996 2.538710 1.998925 -1.154061 1.154075 -0.000001 0.000002 -0.000000 9.109290 -0.518019 2.259890 -0.000000 0.000003 0.000000 0.000001 0.000006 -0.000022 0.000038 -0.022827 0.189113 -0.000001 -0.000002 -0.000003 9.533405 0.000002 -0.000006 -0.000002 -0.001934 0.015991 0.000001 0.001934 -0.015991 -0.000001 0.000001 -0.000003 -0.000002 -0.000000 -0.000001 9.104490 -0.043000 -1.865104 -0.000000 0.000003 0.000000 0.000000 0.000003 -0.000001 0.000000 0.000003 -0.000001 0.000001 0.000001 0.000000 8.077802 -0.486891 -3.806309 -0.018085 4.054270 0.511063 -0.018091 -4.054264 -0.511068 -0.000001 0.000001 -0.000002 -0.000002 0.000003 -0.000001 -8.207801 -6.751719 -1.599548 -37.346634 5.766225 -7.188281 63.626484 -7.277071 -0.442367 29.400180 -4.502061 -10.654766 -0.776425 0.000004 0.000001 -0.000004 -0.000001 -0.000001 8.207802 -6.751703 -1.599546 -8.152661 3.181021 -14.475876 28.605958 -1.637853 -0.133020 27.877298 2.136423 14.137796 -40.129957 0.255422 -5.029516 -0.000000 0.000000 0.000000 
